<svg xmlns="http://www.w3.org/2000/svg" viewBox="0 0 32 32" fill="none">
  <defs>
    <linearGradient id="fg" x1="0%" y1="0%" x2="100%" y2="100%">
      <stop offset="0%" stop-color="#a855f7"/>
      <stop offset="100%" stop-color="#c084fc"/>
    </linearGradient>
  </defs>
  <path d="M16 3C9.4 3 4 7.5 4 13c0 2.5 1.2 4.9 3.1 6.7L5.5 25l5-2.8c1.6.6 3.5.9 5.5.9 6.6 0 12-4.5 12-10S22.6 3 16 3z" fill="url(#fg)" opacity="0.15"/>
  <path d="M16 3C9.4 3 4 7.5 4 13c0 2.5 1.2 4.9 3.1 6.7L5.5 25l5-2.8c1.6.6 3.5.9 5.5.9 6.6 0 12-4.5 12-10S22.6 3 16 3z" stroke="url(#fg)" stroke-width="1.2" fill="none" stroke-linejoin="round"/>
  <circle cx="12.5" cy="11.5" r="1.8" fill="url(#fg)"/>
  <circle cx="19.5" cy="11.5" r="1.8" fill="url(#fg)"/>
  <circle cx="16" cy="17.5" r="1.8" fill="url(#fg)"/>
  <line x1="13.8" y1="12" x2="18.2" y2="12" stroke="url(#fg)" stroke-width="0.6" opacity="0.5"/>
  <line x1="13" y1="13" x2="15.2" y2="16.2" stroke="url(#fg)" stroke-width="0.6" opacity="0.5"/>
  <line x1="19" y1="13" x2="16.8" y2="16.2" stroke="url(#fg)" stroke-width="0.6" opacity="0.5"/>
</svg>
